# xmcd CD database file
#
# Track frame offsets:
#	150
#	23767
#	44747
#
# Disc length: 928 seconds
#
# Revision: 0
# Processed by: cddbd v1.5.1PL0 Copyright (c) Steve Scherf et al.
# Submitted via: CDex 1.51
#
DISCID=20039e03
DTITLE=青山陽一 - 難破船のセイラー
DYEAR=2001
DGENRE=Rock
TTITLE0=難破船のセイラー
TTITLE1=満員電車のモラル
TTITLE2=空中遊泳ベイビー
EXTD=YEAR: 2001
EXTT0=
EXTT1=
EXTT2=
PLAYORDER=
